HIERARCHY
ROOT hip
{
  OFFSET 0 0 0
  CHANNELS 6 Xposition Yposition Zposition Zrotation Yrotation Xrotation
  JOINT abdomen
  {
    OFFSET 0 20.6881 -0.73152
    CHANNELS 3 Zrotation Xrotation Yrotation
    JOINT chest
    {
      OFFSET 0 11.7043 -0.48768
      CHANNELS 3 Zrotation Xrotation Yrotation
      JOINT neck
      {
        OFFSET 0 22.1894 -2.19456
        CHANNELS 3 Zrotation Xrotation Yrotation
        JOINT head
        {
          OFFSET -0.24384 7.07133 1.2192
          CHANNELS 3 Zrotation Xrotation Yrotation
          JOINT leftEye
          {
            OFFSET 4.14528 8.04674 8.04672
            CHANNELS 3 Zrotation Xrotation Yrotation
            End Site
            {
              OFFSET 1 0 0
            }
          }
          JOINT rightEye
          {
            OFFSET -3.6576 8.04674 8.04672
            CHANNELS 3 Zrotation Xrotation Yrotation
            End Site
            {
              OFFSET 1 0 0
            }
          }
        }
      }
      JOINT rCollar
      {
        OFFSET -2.68224 19.2634 -4.8768
        CHANNELS 3 Zrotation Xrotation Yrotation
        JOINT rShldr
        {
          OFFSET -8.77824 -1.95073 1.46304
          CHANNELS 3 Zrotation Xrotation Yrotation
          JOINT rForeArm
          {
            OFFSET -28.1742 -1.7115 0.48768
            CHANNELS 3 Zrotation Xrotation Yrotation
            JOINT rHand
            {
              OFFSET -22.5879 0.773209 7.07136
              CHANNELS 3 Zrotation Xrotation Yrotation
              JOINT rThumb1
              {
                OFFSET -1.2192 -0.487915 3.41376
                CHANNELS 3 Zrotation Xrotation Yrotation
                JOINT rThumb2
                {
                  OFFSET -3.37035 -0.52449 3.41376
                  CHANNELS 3 Zrotation Xrotation Yrotation
                  End Site
                  {
                    OFFSET -1.78271 -1.18214 1.43049
                  }
                }
              }
              JOINT rIndex1
              {
                OFFSET -7.75947 0.938293 5.60832
                CHANNELS 3 Zrotation Xrotation Yrotation
                JOINT rIndex2
                {
                  OFFSET -2.54057 -0.884171 1.56538
                  CHANNELS 3 Zrotation Xrotation Yrotation
                  End Site
                  {
                    OFFSET -1.62519 -0.234802 1.16502
                  }
                }
              }
              JOINT rMid1
              {
                OFFSET -8.24714 1.18213 3.41376
                CHANNELS 3 Zrotation Xrotation Yrotation
                JOINT rMid2
                {
                  OFFSET -3.10165 -0.590103 1.0647
                  CHANNELS 3 Zrotation Xrotation Yrotation
                  End Site
                  {
                    OFFSET -2.48547 -0.328903 0.83742
                  }
                }
              }
              JOINT rRing1
              {
                OFFSET -8.82822 0.546677 1.51678
                CHANNELS 3 Zrotation Xrotation Yrotation
                JOINT rRing2
                {
                  OFFSET -2.60934 -0.819778 -0.0198488
                  CHANNELS 3 Zrotation Xrotation Yrotation
                  End Site
                  {
                    OFFSET -2.33842 -0.294052 0.168128
                  }
                }
              }
              JOINT rPinky1
              {
                OFFSET -8.27202 -0.0477905 -0.4584
                CHANNELS 3 Zrotation Xrotation Yrotation
                JOINT rPinky2
                {
                  OFFSET -1.82734 -0.647385 -0.700984
                  CHANNELS 3 Zrotation Xrotation Yrotation
                  End Site
                  {
                    OFFSET -1.69225 -0.51767 -0.607171
                  }
                }
              }
            }
          }
        }
      }
      JOINT lCollar
      {
        OFFSET 2.68224 19.2634 -4.8768
        CHANNELS 3 Zrotation Xrotation Yrotation
        JOINT lShldr
        {
          OFFSET 8.77824 -1.95073 1.46304
          CHANNELS 3 Zrotation Xrotation Yrotation
          JOINT lForeArm
          {
            OFFSET 28.1742 -1.7115 0.48768
            CHANNELS 3 Zrotation Xrotation Yrotation
            JOINT lHand
            {
              OFFSET 22.5879 0.773209 7.07136
              CHANNELS 3 Zrotation Xrotation Yrotation
              JOINT lThumb1
              {
                OFFSET 1.2192 -0.487915 3.41376
                CHANNELS 3 Zrotation Xrotation Yrotation
                JOINT lThumb2
                {
                  OFFSET 3.37035 -0.52449 3.41376
                  CHANNELS 3 Zrotation Xrotation Yrotation
                  End Site
                  {
                    OFFSET 1.78271 -1.18214 1.43049
                  }
                }
              }
              JOINT lIndex1
              {
                OFFSET 7.75947 0.938293 5.60832
                CHANNELS 3 Zrotation Xrotation Yrotation
                JOINT lIndex2
                {
                  OFFSET 2.54057 -0.884171 1.56538
                  CHANNELS 3 Zrotation Xrotation Yrotation
                  End Site
                  {
                    OFFSET 1.62519 -0.234802 1.16502
                  }
                }
              }
              JOINT lMid1
              {
                OFFSET 8.24714 1.18213 3.41376
                CHANNELS 3 Zrotation Xrotation Yrotation
                JOINT lMid2
                {
                  OFFSET 3.10165 -0.590103 1.0647
                  CHANNELS 3 Zrotation Xrotation Yrotation
                  End Site
                  {
                    OFFSET 2.48547 -0.328903 0.83742
                  }
                }
              }
              JOINT lRing1
              {
                OFFSET 8.82822 0.546677 1.51678
                CHANNELS 3 Zrotation Xrotation Yrotation
                JOINT lRing2
                {
                  OFFSET 2.60934 -0.819778 -0.0198488
                  CHANNELS 3 Zrotation Xrotation Yrotation
                  End Site
                  {
                    OFFSET 2.33842 -0.294052 0.168128
                  }
                }
              }
              JOINT lPinky1
              {
                OFFSET 8.27202 -0.0477905 -0.4584
                CHANNELS 3 Zrotation Xrotation Yrotation
                JOINT lPinky2
                {
                  OFFSET 1.82734 -0.647385 -0.700984
                  CHANNELS 3 Zrotation Xrotation Yrotation
                  End Site
                  {
                    OFFSET 1.69225 -0.51767 -0.607171
                  }
                }
              }
            }
          }
        }
      }
    }
  }
  JOINT rButtock
  {
    OFFSET -8.77824 4.35084 1.2192
    CHANNELS 3 Zrotation Xrotation Yrotation
    JOINT rThigh
    {
      OFFSET 0 -1.70687 -2.19456
      CHANNELS 3 Zrotation Xrotation Yrotation
      JOINT rShin
      {
        OFFSET 0 -36.8199 0.73152
        CHANNELS 3 Zrotation Xrotation Yrotation
        JOINT rFoot
        {
          OFFSET 0.73152 -45.1104 -5.12064
          CHANNELS 3 Zrotation Xrotation Yrotation
          End Site
          {
            OFFSET -1.1221 -3.69964 12.103
          }
        }
      }
    }
  }
  JOINT lButtock
  {
    OFFSET 8.77824 4.35084 1.2192
    CHANNELS 3 Zrotation Xrotation Yrotation
    JOINT lThigh
    {
      OFFSET 0 -1.70687 -2.19456
      CHANNELS 3 Zrotation Xrotation Yrotation
      JOINT lShin
      {
        OFFSET 0 -36.8199 0.73152
        CHANNELS 3 Zrotation Xrotation Yrotation
        JOINT lFoot
        {
          OFFSET -0.73152 -45.1104 -5.12064
          CHANNELS 3 Zrotation Xrotation Yrotation
          End Site
          {
            OFFSET 1.1221 -3.69964 12.103
          }
        }
      }
    }
  }
}
MOTION
Frames:	7
Frame Time:	0.00833333
0.0 0.0 0.0 0.0 0.0 0.0 0.0 0.0 0.0 0.0 0.0 0.0 0.0 0.0 0.0 0.0 0.0 0.0 0.0 0.0 0.0 0.0 0.0 0.0 0.0 0.0 0.0 0.0 0.0 0.0 0.0 0.0 0.0 0.0 0.0 0.0 0.0 0.0 0.0 0.0 0.0 0.0 0.0 0.0 0.0 0.0 0.0 0.0 0.0 0.0 0.0 0.0 0.0 0.0 0.0 0.0 0.0 0.0 0.0 0.0 0.0 0.0 0.0 0.0 0.0 0.0 0.0 0.0 0.0 0.0 0.0 0.0 0.0 0.0 0.0 0.0 0.0 0.0 0.0 0.0 0.0 0.0 0.0 0.0 0.0 0.0 0.0 0.0 0.0 0.0 0.0 0.0 0.0 0.0 0.0 0.0 0.0 0.0 0.0 0.0 0.0 0.0 0.0 0.0 0.0 0.0 0.0 0.0 0.0 0.0 0.0 0.0 0.0 0.0 0.0 0.0 0.0 0.0 0.0 0.0 0.0 0.0 0.0 0.0 0.0 0.0 0.0 0.0 0.0 0.0 0.0 0.0
-84.5355 84.2511 2.64407 -0.0 0.0 -0.0 0.0 0.0 0.0 0.0 0.0 -0.0 -2.189902 0.70575 -13.10212 2.292863 -0.190556 13.119422 0.0 -0.0 -0.0 0.0 -0.0 -0.0 -155.569543 -3.943241 161.929333 28.083566 -29.965093 16.947442 -179.304987 -13.94792 178.221198 -6.196705 19.392739 0.388883 83.25393 -50.258079 33.616048 -150.681729 -4.583844 116.723518 179.29168 -59.501832 116.31629 -160.511865 -29.166201 110.217384 23.903801 -61.333833 1.399383 -84.377165 61.446562 74.788306 -0.014868 -1.323148 -0.415899 -7.129968 44.40908 9.143119 -126.797849 -26.619602 -124.512652 -83.418737 -53.909599 -85.402856 33.837732 -85.66573 55.255002 4.211115 12.798237 -18.398356 174.229968 -41.222693 -146.677402 -165.581625 -29.420592 -141.42947 -99.080965 -51.215433 -44.800906 32.098845 -1.75649 11.322676 166.821797 -43.973781 -122.061691 -44.549458 -34.583657 4.127312 -23.903801 -61.333833 -1.399383 164.710082 -4.21527 -140.357489 72.133176 72.974596 -89.989695 -5.624589 0.143143 14.840789 -4.763426 13.903473 -4.303395 144.97352 -2.92908 138.901412 -0.0 0.0 -0.0 -0.0 -0.0 -0.0 7.081855 4.181059 77.332942 -10.918931 -56.542819 -101.3047 -0.0 0.0 -0.0 -0.0 -0.0 -0.0 -7.081855 4.181059 -77.332942 10.918931 -56.542819 101.3047
-84.5749 84.2443 2.65581 -0.0 0.0 -0.0 0.0 0.0 0.0 0.0 0.0 -0.0 -2.189902 0.70575 -13.10212 2.292863 -0.190556 13.119422 0.0 -0.0 -0.0 0.0 -0.0 -0.0 -155.569543 -3.943241 161.929333 28.083566 -29.965093 16.947442 -179.304987 -13.94792 178.221198 -6.196705 19.392739 0.388883 83.25393 -50.258079 33.616048 -150.681729 -4.583844 116.723518 179.29168 -59.501832 116.31629 -160.511865 -29.166201 110.217384 23.903801 -61.333833 1.399383 -84.377165 61.446562 74.788306 -0.014868 -1.323148 -0.415899 -7.129968 44.40908 9.143119 -126.797849 -26.619602 -124.512652 -83.418737 -53.909599 -85.402856 33.837732 -85.66573 55.255002 4.211115 12.798237 -18.398356 174.229968 -41.222693 -146.677402 -165.581625 -29.420592 -141.42947 -99.080965 -51.215433 -44.800906 32.098845 -1.75649 11.322676 166.821797 -43.973781 -122.061691 -44.549458 -34.583657 4.127312 -23.903801 -61.333833 -1.399383 164.710082 -4.21527 -140.357489 72.133176 72.974596 -89.989695 -5.624589 0.143143 14.840789 -4.763426 13.903473 -4.303395 144.97352 -2.92908 138.901412 -0.0 0.0 -0.0 -0.0 -0.0 -0.0 7.081855 4.181059 77.332942 -10.918931 -56.542819 -101.3047 -0.0 0.0 -0.0 -0.0 -0.0 -0.0 -7.081855 4.181059 -77.332942 10.918931 -56.542819 101.3047
-84.6188 84.2372 2.66973 -0.0 -0.0 -0.0 -0.0 0.0 -0.0 -0.0 -0.0 0.0 -3.941986 17.932259 -132.771391 10.667824 15.013811 131.983833 -0.0 -0.0 0.0 -0.0 -0.0 0.0 -142.973735 39.431617 147.390037 -151.980852 -2.335175 170.955575 110.600557 -71.964662 80.785215 -170.34391 38.040307 141.897918 -171.706035 -9.388422 89.948992 -16.008551 -43.604564 3.873661 174.382035 -63.05997 113.272685 -73.547142 48.571058 66.447291 -125.644075 49.839986 115.274123 -0.949194 17.932363 0.701238 -145.101024 -1.437309 -178.676528 -146.275265 22.102942 177.947286 -81.323898 -51.182704 -79.740822 -76.876939 -56.158331 -77.571617 155.716846 -4.925325 -162.135615 -12.417876 17.278142 -18.457799 -2.414051 -46.144656 34.377214 -166.872417 -26.422792 -142.138933 -5.513585 -5.499559 0.587069 7.212048 7.293445 -2.574108 159.053898 -31.319752 -122.653982 159.338506 -32.900382 -116.470596 0.287128 0.832638 -0.160579 154.776306 25.446496 -137.025486 145.118942 0.185466 179.186604 -22.414697 34.844801 5.10311 139.224096 -4.39683 136.390672 -67.684875 84.570531 26.966948 -180.0 75.749642 -0.0 -180.0 73.473292 -180.0 -3.818269 -2.872352 -145.985039 132.303751 -58.9227 18.46288 -180.0 75.749642 -0.0 -180.0 73.473292 -180.0 3.818269 -2.872352 145.985039 -132.303751 -58.9227 -18.46288
-84.6535 84.232 2.6864 -0.0 0.0 -0.0 0.0 0.0 0.0 0.0 0.0 -0.0 -2.189902 0.70575 -13.10212 2.292863 -0.190556 13.119422 0.0 -0.0 -0.0 0.0 -0.0 -0.0 -142.973735 39.431617 147.390037 -175.665045 -77.013917 157.261277 87.11502 -75.379034 78.896818 -27.091257 57.338549 12.791298 71.831195 -48.263725 25.791675 -109.077566 35.249479 75.684389 -0.327682 0.529888 0.186114 -138.529582 28.67233 97.770781 173.123457 -66.297779 137.614274 -154.070631 14.416751 137.012449 0.004672 0.917785 0.288305 -86.805871 78.917224 89.809086 -156.864532 55.54159 -150.329136 51.076186 78.472832 -14.200809 159.221365 -48.725035 -170.567307 2.026547 25.440805 -24.767029 -70.185435 89.518431 66.852321 5.092315 16.088354 -0.165535 171.603563 -9.286185 -89.949897 114.623439 13.79174 -52.328978 0.327682 0.529888 -0.186114 178.664693 -21.036755 -109.096165 82.840589 61.110826 -74.532293 5.767366 26.807864 -2.871944 0.014868 -1.323148 0.415899 -0.107828 0.003746 -0.248478 -12.252484 41.424931 -10.280249 0.446928 -0.608486 2.234615 -0.0 0.0 -0.0 -0.0 -2.27635 -180.0 -6.880793 -5.921355 -107.859822 -81.974403 62.850255 10.152436 -0.0 0.0 -0.0 -0.0 -2.27635 -180.0 6.880793 -5.921355 107.859822 81.974403 62.850255 -10.152436
-84.669 84.2292 2.7075 -0.0 -0.0 -0.0 -0.0 0.0 -0.0 0.0 -0.0 -0.0 9.579663 3.263211 60.169506 -7.606876 6.687135 -59.997951 0.0 0.0 0.0 0.0 0.0 0.0 -155.569543 -3.943241 161.929333 98.101882 -75.827303 75.712515 165.19802 -0.046935 166.948514 -91.796979 74.497327 72.460592 -178.927535 -16.453687 89.421826 -19.80342 -43.123773 -1.335484 -127.853541 18.70338 107.507054 -56.402448 62.864292 43.280909 -149.312343 22.338605 135.906194 23.044469 -49.941925 -0.427129 -0.014868 -1.323148 -0.415899 -165.237533 -64.202028 -179.249278 -0.529991 -1.364052 -0.490385 -24.816584 -39.913911 -23.087336 9.651699 34.836178 -11.199233 13.947974 -74.820692 25.030574 -170.016727 -44.390432 -136.577584 -178.362373 7.308402 -145.338128 175.329686 -12.974996 -89.798138 163.347023 -1.889422 -87.611171 138.493513 4.896353 -114.8648 151.948557 -11.276878 -124.104072 0.571049 1.648356 -0.322148 158.170509 18.128686 -139.333183 0.007655 3.557308 -1.118186 -0.60657 -26.56216 3.868958 -26.973563 80.122588 -10.137824 23.275931 -35.92503 24.18924 -180.0 75.749642 -0.0 -180.0 73.473292 -180.0 -5.202696 -3.77183 -131.645293 9.888256 -19.253383 -54.568918 -180.0 75.749642 -0.0 -180.0 73.473292 -180.0 5.202696 -3.77183 131.645293 -9.888256 -19.253383 54.568918
-84.6703 84.2282 2.72345 -0.0 -0.0 -0.0 -0.0 0.0 -0.0 -0.0 -0.0 0.0 -3.941986 17.932259 -132.771391 10.667824 15.013811 131.983833 -0.0 -0.0 0.0 -0.0 -0.0 0.0 -142.973735 39.431617 147.390037 -151.980852 -2.335175 170.955575 -170.162436 -1.123321 146.589586 158.426234 -42.737179 136.707116 -5.433768 5.264911 1.077842 -66.195604 25.558097 61.92377 45.282556 -63.865437 4.306423 -95.474002 38.832396 76.143684 89.035113 -81.393384 59.759886 -164.012157 -6.155909 140.196207 0.004875 1.770451 0.556181 -8.548981 49.474405 10.251834 -111.800364 -40.681617 -109.845664 5.50214 2.962378 1.731972 155.716846 -4.925325 -162.135615 125.749522 53.764515 -142.833519 -164.808631 -62.029508 -129.287582 -177.151643 3.434582 -145.31895 85.829417 38.630721 -47.955432 -34.447535 -33.187973 -21.455368 77.667448 43.02965 -64.538509 -149.571321 -68.995242 -97.728478 15.317654 32.8094 -11.206912 -24.311758 -61.236724 -3.277186 -0.000474 0.063711 -0.020016 165.750286 -1.127736 -171.928262 142.201314 3.268081 139.144618 144.730169 11.308426 142.106939 -180.0 75.749642 -0.0 -180.0 73.473292 -180.0 -5.202696 -3.77183 -131.645293 9.888256 -19.253383 -54.568918 -180.0 75.749642 -0.0 -180.0 73.473292 -180.0 5.202696 -3.77183 131.645293 -9.888256 -19.253383 54.568918
